<?xml version="1.0" encoding="UTF-8" standalone="no"?>
<!DOCTYPE svg PUBLIC "-//W3C//DTD SVG 1.1//EN" "http://www.w3.org/Graphics/SVG/1.1/DTD/svg11.dtd">
<svg width="100%" height="100%" viewBox="0 0 500 100" version="1.1" xmlns="http://www.w3.org/2000/svg" xmlns:xlink="http://www.w3.org/1999/xlink" xml:space="preserve" xmlns:serif="http://www.serif.com/" style="fill-rule:evenodd;clip-rule:evenodd;stroke-linecap:round;stroke-linejoin:round;stroke-miterlimit:1.5;">
    <g transform="matrix(1.73879,0,0,1.73879,-97.1256,-36.4394)">
        <g transform="matrix(1,0,0,1,-40.7664,3.72479)">
            <text x="92.595px" y="71.167px" style="font-family:'PTSans-Narrow', 'PT Sans Narrow', sans-serif;font-stretch:condensed;font-size:72px;fill:white;">lit</text>
        </g>
        <g transform="matrix(1,0,0,1,-104.531,17.8309)">
            <text x="205.396px" y="57.061px" style="font-family:'PTSans-Narrow', 'PT Sans Narrow', sans-serif;font-stretch:condensed;font-size:72px;fill:white;">tle</text>
            <text x="271.708px" y="57.061px" style="font-family:'PTSans-NarrowBold', 'PT Sans Narrow', sans-serif;font-weight:700;font-stretch:condensed;font-size:72px;fill:white;">sense</text>
        </g>
    </g>
    <g transform="matrix(0.435748,0,0,0.435748,444.592,-0.388829)">
        <g transform="matrix(0.842116,0,0,0.750744,-83.2306,-122.504)">
            <path d="M100,200L140,160L140,260L100,300L100,200Z" style="fill:white;stroke:rgb(22,139,186);stroke-width:5.75px;"/>
        </g>
        <g transform="matrix(0.842116,0,0,0.750744,-68.5286,-122.504)">
            <path d="M100,200L140,160L140,260L100,300L100,200Z" style="fill:white;stroke:rgb(22,139,186);stroke-width:5.75px;"/>
        </g>
        <g transform="matrix(0.842116,0,0,0.750744,-54.7567,-122.504)">
            <path d="M100,200L140,160L140,260L100,300L100,200Z" style="fill:white;stroke:rgb(22,139,186);stroke-width:5.75px;"/>
        </g>
    </g>
</svg>
