<?xml version="1.0" encoding="UTF-8" standalone="no"?>
<!DOCTYPE svg PUBLIC "-//W3C//DTD SVG 1.1//EN" "http://www.w3.org/Graphics/SVG/1.1/DTD/svg11.dtd">
<svg width="100%" height="100%" viewBox="0 0 600 250" version="1.1" xmlns="http://www.w3.org/2000/svg" xmlns:xlink="http://www.w3.org/1999/xlink" xml:space="preserve" xmlns:serif="http://www.serif.com/" style="fill-rule:evenodd;clip-rule:evenodd;stroke-linecap:round;stroke-miterlimit:10;">
    <g transform="matrix(0.17005,0,0,0.17005,350,143.407)">
        <g transform="matrix(1,0,0,1,-256,-256)">
            <path id="Background_Bottom" d="M492.3,443.1C492.3,477.3 464.6,505 430.4,505L80.7,505C46.5,505 18.8,477.3 18.8,443.1L18.8,93.4C18.8,59.2 46.5,31.5 80.7,31.5L430.4,31.5C464.6,31.5 492.3,59.2 492.3,93.4L492.3,443.1Z" style="fill:rgb(122,5,44);fill-rule:nonzero;"/>
            <path id="Background" d="M492.3,418.4C492.3,452.6 464.6,480.3 430.4,480.3L80.7,480.3C46.5,480.3 18.8,452.6 18.8,418.4L18.8,68.6C18.8,34.4 46.5,6.7 80.7,6.7L430.4,6.7C464.6,6.7 492.3,34.4 492.3,68.6L492.3,418.4Z" style="fill:rgb(198,5,61);fill-rule:nonzero;"/>
            <g id="Shadow">
                <path d="M256.7,146C257,145.8 256.7,146.3 256.7,146C256.6,146 256.6,146 256.7,146C256.6,146 256.7,146 256.7,146Z" style="fill:rgb(150,6,54);fill-rule:nonzero;"/>
                <path d="M368,126.4C366.5,122 362.9,120.9 358.9,120.6C357.7,120.5 356.5,120.5 355.5,119.6C352.4,116.5 348.4,116 344.3,115.9C342.9,115.8 341.6,115.7 340.5,114.8C338.6,113.3 336.4,112.9 334.1,113.1C332.6,113.2 331.3,112.9 330,112.1C328.1,110.9 325.9,110.3 323.8,110.7C320.5,111.4 317.4,111.8 314.2,110.4C314.1,110.3 313.9,110.4 313.7,110.4C311.2,110.2 308.7,110.6 306.4,111.7C305.3,112.3 304.1,112.3 302.9,112.1C300,111.6 297.1,111.9 294.5,113.5C293.5,114.1 292.4,114.4 291.3,114.3C286.8,113.7 283.3,115.5 280.3,118.7C279.6,119.5 278.7,120.2 277.6,120C275.2,119.6 273.4,120.9 271.7,122.2C265.7,126.7 261.6,132.8 258.6,139.6C257.7,141.6 256.6,143.5 256.5,145.7C255.7,141.7 253.7,138.2 251.7,134.7C249,129.8 245.5,125.5 241,122.1C239.7,121.1 238.3,119.9 236.5,120.1C234.6,120.3 233.3,119.6 232,118.3C229.4,115.6 226.3,114.1 222.5,114.4C221.1,114.5 219.6,114.5 218.3,113.7C215.7,112 212.9,111.8 209.9,112.3C208.6,112.5 207.3,112.5 206.1,111.8C203.9,110.6 201.5,110.4 199.1,110.5C198.4,110.5 197.5,110.5 197,110.8C194.9,112 192.9,111.6 190.7,111.1C187.8,110.3 185,110.8 182.4,112.4C181.3,113.1 180.1,113.5 178.7,113.3C176.1,113.1 173.7,113.5 171.7,115.2C170.8,115.9 169.9,116 168.8,116C165.2,116 161.5,116.3 158.5,118.6C156.9,119.9 155.2,120.5 153.1,120.7C146.2,121.4 143.3,125.8 145.1,132.5C145.4,133.5 145.6,134.5 145,135.5C142.9,138.8 143.3,142.1 145.3,145.3C145.9,146.2 146.3,147.1 146.1,148.3C145.4,151.7 146.7,154.5 148.6,157.1C149.3,158 149.9,158.9 149.9,160.1C149.7,163.7 151.2,166.5 153.7,168.8C154.4,169.4 154.9,170.1 155,171C155.4,175.1 157.8,177.9 161,180.2C162.1,180.9 163.2,181.6 163.6,183C165,187.2 168,189.6 172,191C173.1,191.4 173.9,192.1 174.4,193.2C175.5,195.8 177.7,197.2 180.3,198.2C181.1,198.5 182.1,198.4 182.6,199.3C182.5,199.5 182.4,199.6 182.3,199.7C181.6,200.2 180.8,200.6 180,201.1C174.2,204.7 169.2,209.2 165.1,214.7C158.6,223.6 156.5,234 156.1,244.8C156,247.7 154.9,249.9 152.6,251.6C145.4,256.7 140.3,263.6 136.8,271.6C136.2,273.1 133.5,279.1 133.1,287.4C133,289.5 133.1,291.3 133.1,292.5C133.1,293 133.2,293.7 133.3,294.5C134.6,304.7 138.1,312.1 139.5,314C144,320.1 146.9,326.7 148.7,333.9C149.2,335.8 149.9,337.6 150.6,339.4C151.4,341.5 152.1,343.6 152.5,345.9C153.2,349.8 154.3,353.6 155.9,357.2C160.3,367 166.8,374.7 175.4,380.4L177.9,382.9C178.1,383.1 178.3,383.4 178.5,383.6L178.5,383.5L275.6,480.6L430.5,480.2C464.7,480.2 492.4,452.5 492.4,418.3L492.4,250.8L368,126.4ZM322.9,119.5C323.5,119.4 324.1,119 324.8,119.6C324.2,120.3 323.6,120.9 323,121.6C320.6,121.8 318.1,122 315.4,122.2C317.8,121 320.3,120.1 322.9,119.5ZM309.9,119.8C310.4,119.5 311,118.9 311.6,119.5C312.2,120 311.3,120.5 311.2,121C311.1,121.3 310.9,121.6 310.9,121.9C310.9,122.1 310.8,122.4 310.9,122.6C308.9,122.8 306.8,123 304.7,123.2C306.3,121.8 308,120.7 309.9,119.8ZM299.8,120.6C300.4,121.6 299.6,122.3 299.8,123C299.9,123.2 299.9,123.3 300,123.5C298.4,123.7 296.7,123.8 295,124C296.5,122.7 298,121.6 299.8,120.6ZM289.5,122.7C289.7,123.4 289.7,124 289.7,124.6C288.8,124.7 287.9,124.8 287,124.9C287.7,124.2 288.6,123.4 289.5,122.7Z" style="fill:rgb(150,6,54);fill-rule:nonzero;"/>
            </g>
            <path id="Symbol" d="M379.8,281.5C376.9,269.4 371,259.3 360.9,251.9C358.8,250.4 357.8,248.4 357.6,245.8C357.3,242.5 357.2,239.2 356.7,236C354.9,223.8 349.4,213.8 339.8,206.1C337.1,203.9 334,202.2 331,199.8C332.8,199.1 334.3,198.5 335.7,197.7C337.1,196.9 338.4,195.9 339.1,194.4C339.9,192.6 341.2,191.7 343,191.1C346.1,189.9 348.7,187.9 349.8,184.7C350.3,183.2 351.2,182.1 352.5,181.1C355.4,179 358,176.5 358.6,172.7C358.9,171 359.6,169.7 360.9,168.6C362.9,166.8 364,164.4 364,161.8C364,160 364.5,158.6 365.6,157.2C367.4,154.8 368.4,152.1 367.8,149.1C367.5,147.8 368,146.7 368.7,145.7C370.5,142.9 370.8,140 369.1,137C368.3,135.5 368.3,134.2 368.8,132.6C369.5,130.8 369.5,129 368.9,127.2C367.4,122.8 363.8,121.7 359.8,121.3C358.6,121.2 357.4,121.2 356.4,120.3C353.3,117.2 349.3,116.7 345.2,116.6C343.8,116.5 342.5,116.4 341.4,115.5C339.5,114 337.3,113.6 335,113.8C333.5,113.9 332.2,113.6 330.9,112.8C329,111.6 326.8,111 324.7,111.4C321.4,112.1 318.3,112.5 315.1,111.1C315,111 314.8,111.1 314.6,111.1C312.1,110.9 309.6,111.3 307.3,112.4C306.2,113 305,113 303.8,112.8C300.9,112.3 298,112.6 295.4,114.2C294.4,114.8 293.3,115.1 292.2,115C287.7,114.4 284.2,116.2 281.2,119.4C280.5,120.2 279.6,120.9 278.5,120.7C276.1,120.3 274.3,121.6 272.6,122.9C266.6,127.4 262.5,133.5 259.5,140.3C258.6,142.3 257.5,144.2 257.4,146.4C256.6,142.4 254.6,138.9 252.6,135.4C249.9,130.5 246.4,126.2 241.9,122.8C240.6,121.8 239.2,120.6 237.4,120.8C235.5,121 234.2,120.3 232.9,119C230.3,116.3 227.2,114.8 223.4,115.1C222,115.2 220.5,115.2 219.2,114.4C216.6,112.7 213.8,112.5 210.8,113C209.5,113.2 208.2,113.2 207,112.5C204.8,111.3 202.4,111.1 200,111.2C199.3,111.2 198.4,111.2 197.9,111.5C195.8,112.7 193.8,112.3 191.6,111.8C188.7,111 185.9,111.5 183.3,113.1C182.2,113.8 181,114.2 179.6,114C177,113.8 174.6,114.2 172.6,115.9C171.7,116.6 170.8,116.7 169.7,116.7C166.1,116.7 162.4,117 159.4,119.3C157.8,120.6 156.1,121.2 154,121.4C147.1,122.1 144.2,126.5 146,133.2C146.3,134.2 146.5,135.2 145.9,136.2C143.8,139.5 144.2,142.8 146.2,146C146.8,146.9 147.2,147.8 147,149C146.3,152.4 147.6,155.2 149.5,157.8C150.2,158.7 150.8,159.6 150.8,160.8C150.6,164.4 152.1,167.2 154.6,169.5C155.3,170.1 155.8,170.8 155.9,171.7C156.3,175.8 158.7,178.6 161.9,180.9C163,181.6 164.1,182.3 164.5,183.7C165.9,187.9 168.9,190.3 172.9,191.7C174,192.1 174.8,192.8 175.3,193.9C176.4,196.5 178.6,197.9 181.2,198.9C182,199.2 183,199.1 183.5,200C183.4,200.2 183.3,200.3 183.2,200.4C182.5,200.9 181.7,201.3 180.9,201.8C175.1,205.4 170.1,209.9 166,215.4C159.5,224.3 157.4,234.7 157,245.5C156.9,248.4 155.8,250.6 153.5,252.3C146.3,257.4 141.2,264.3 137.7,272.3C137.1,273.8 134.4,279.8 134,288.1C133.9,290.2 134,292 134,293.2C134,293.7 134.1,294.4 134.2,295.2C135.5,305.4 139,312.8 140.4,314.7C144.9,320.8 147.8,327.4 149.6,334.6C150.1,336.5 150.8,338.3 151.5,340.1C152.3,342.2 153,344.3 153.4,346.6C154.1,350.5 155.2,354.3 156.8,357.9C162.5,370.7 171.8,379.8 184.4,385.6C186,386.3 187.5,387.2 189,388.2C195.5,392.8 202.1,397.3 209.5,400.5C213.9,402.4 218.3,404.2 222,407.5C231.6,416.1 242.8,421.1 256,420.7C257,420.7 258,420.7 259,420.7C263.1,420.7 267.2,420.6 271.2,419.4C279.8,417 287.4,412.8 293.9,406.6C295.8,404.8 297.9,403.5 300.4,402.5C309,399.1 317,394.6 324.4,389.2C326.3,387.8 328.2,386.5 330.3,385.5C344.3,379.2 354,368.8 359.3,354.4C361.4,348.7 361.9,342.4 364.4,336.8C366,333.2 367,329.4 367.9,325.5C368.3,323.9 368.9,322.5 369.9,321.2C374.4,315.7 377.7,309.6 379.6,302.8C380.5,299.7 380.3,296.5 380.9,293.3C380.9,292.2 380.9,291 380.9,289.9C380.1,287.1 380.5,284.2 379.8,281.5ZM335.1,219.3C341.3,227.1 343.4,236.2 343.4,245.9C343.4,248 342.3,248.7 340.1,248.1C337.7,247.5 335.6,246.4 333.5,245.1C319.5,236.2 306.9,225.6 296,213.1C294.7,211.6 293.6,210.1 292.8,208.3C292.2,206.8 292.4,205.7 294.4,205.4C297.2,205.1 300,204.7 304.1,204.7C315.5,205.2 326.8,209 335.1,219.3ZM331.9,277.1C331.9,292.6 322.9,304.3 308.4,306.9C298.8,308.6 290,306.1 282.2,300.4C270.4,291.8 263.9,280.3 264.1,265.5C264.3,245.3 281.8,232.2 301.3,237.4C318.9,242.1 331.9,259 331.9,277.1ZM264.6,154.5C265.8,144.2 271.5,136.2 278.4,128.8C280.2,133.4 280.2,133.4 283.4,129.9C285.5,127.6 287.6,125.3 290.1,123.2C290.6,124.6 289.9,126 290.7,127.1C291.4,128.2 291.9,128.7 292.9,127.4C295,124.8 297.5,122.7 300.4,121.1C301,122.1 300.2,122.8 300.4,123.5C300.7,124.5 301,125.5 301.9,125.8C302.6,126.1 303.1,125.2 303.6,124.8C305.7,123 307.9,121.4 310.4,120.2C310.9,119.9 311.5,119.3 312.1,119.9C312.7,120.4 311.8,120.9 311.7,121.4C311.6,121.7 311.4,122 311.4,122.3C311.3,123 311.3,123.8 311.9,124.3C312.6,124.9 313.1,124.2 313.6,123.9C316.7,122 319.9,120.8 323.4,120C324,119.9 324.6,119.5 325.3,120.1C324.5,121 323.7,121.8 322.9,122.7C322.5,123.2 322.3,123.8 322.7,124.5C323.2,125.3 323.8,124.8 324.4,124.6C327.1,123.7 329.9,122.9 332.8,122.4C333.6,122.2 334.5,121.9 335.5,122.4C334.9,123.2 334.3,123.9 333.7,124.7C333.3,125.3 333.2,125.9 333.6,126.5C334.1,127.2 334.7,126.9 335.3,126.7C339.1,125.6 342.9,124.7 346.9,125C347.8,125.1 348.8,125 349.7,125.8C348.7,126.9 347.7,127.9 346.3,129.4C351.3,129.4 355.8,129.4 360.9,129.4C358.7,132.8 356.8,135.5 355.7,138.8C355.1,140.5 355.4,141.2 357.3,141C358.5,140.9 359.7,141 361.1,141C360.5,143.1 359.1,144.5 357.7,145.8C356.8,146.6 355.9,147.4 355,148.2C354.2,148.9 352.6,149.5 353.1,150.7C353.7,151.9 355.3,151.7 356.6,151.5C357.4,151.4 358.1,151.2 359.2,150.9C357.8,153.7 355.8,155.6 353.7,157.5C353,158.1 352.3,158.7 351.8,159.3C351.2,159.9 349.9,160.4 350.3,161.2C350.7,162.2 352,161.7 352.9,161.8C353.6,161.9 354.3,161.8 355.3,161.8C352.1,165.5 348.3,168 344.4,170.8C346.3,171.6 348,171.6 350.1,171.8C346.1,175.8 341,177.6 336.5,180.2C338,181.7 339.8,181.4 341.6,181.5C341.2,182.7 340.1,182.9 339.2,183.3C336.2,184.8 332.9,185.8 329.7,186.8C329.1,187 328,186.9 327.9,187.7C327.8,188.6 328.8,188.9 329.5,189.3C330,189.5 330.5,189.7 331.3,190C327.7,192.1 324,191.9 320.4,192.4C319.3,192.5 318.2,192.6 317,192.7C315.3,192.9 315.1,193.7 316.3,194.8C317,195.4 317.8,195.9 318.9,196.8C307.1,196.9 296,196 286.7,188.4C283.8,186 281.8,182.9 280.4,179.4C279.8,177.8 280,176.8 281.2,175.6C288.3,168.5 296.4,162.6 304.8,157.2C313.3,151.7 322.2,146.8 331.1,142C330.9,141.8 330.7,141.7 330.6,141.5C314.1,147.2 298.5,154.8 284.1,164.7C281.5,166.5 278.9,168.5 276.4,170.5C275.2,171.4 274.4,171.6 273,170.8C266.8,167.6 263.7,161.9 264.6,154.5ZM257.4,146.5C257.7,146.3 257.4,146.8 257.4,146.5C257.3,146.5 257.3,146.5 257.4,146.5C257.3,146.5 257.4,146.5 257.4,146.5ZM285.5,210C291.9,216.5 290.8,224.1 283.2,229.1C281.2,230.4 279.2,231.4 277,232.2C270.8,234.4 264.3,235.1 257.2,235.2C248.3,234.9 239.1,233.4 231.1,227.6C230.8,227.4 230.6,227.2 230.3,227C223.2,221.2 222.8,215.1 229.5,208.9C246.7,192.6 271.4,195.5 285.5,210ZM172.7,181.7C175,181.6 176.9,181.8 178.4,180.4C173.9,177.8 168.9,176 164.9,172.1C166.9,171.8 168.5,171.6 170.1,171.4C166.5,168.3 162.7,165.7 159.2,161.9C160.9,161.9 162.1,161.9 163.2,161.9C163.7,161.9 164.3,161.9 164.4,161.4C164.6,160.9 164,160.6 163.7,160.2C161.4,158 159,156 157,153.6C156.5,153 156.1,152.3 155.5,151.3C157.3,151 158.7,152 160.2,151.5C160.8,151.3 161.6,151.3 161.7,150.6C161.8,150 161.2,149.6 160.8,149.3C158.7,147.4 156.4,145.8 154.7,143.5C154.2,142.8 153.8,142 153.2,141.1C154.8,141.1 156.1,141 157.4,141.1C159,141.2 159.4,140.7 158.9,139.1C157.8,135.9 156.1,133 153.7,129.7C158.6,129.7 163.1,129.7 167.6,129.7C167.7,129.5 167.7,129.3 167.8,129C166.8,128 165.9,127 164.7,125.7C167.5,124.7 170.2,124.9 172.8,125.3C174.9,125.6 176.9,126.2 178.9,126.7C179.6,126.9 180.2,127.4 180.9,126.6C181.5,125.8 181.1,125 180.6,124.4C180.1,123.8 179.5,123.2 178.9,122.7C178.5,122.6 178,122.3 178.4,121.9C178.8,121.5 179.4,121.7 179.9,122.1C183.3,122.6 186.7,123.5 190,124.6C190.6,124.8 191.4,125.5 191.9,124.5C192.3,123.8 192,123.1 191.5,122.5C190.8,121.5 190.1,120.6 189.6,119.8C192.9,120 196.3,121.5 199.8,123.2C200.7,123.7 201.7,125.4 202.8,124.1C204.1,122.7 202.9,121.3 201.9,120.1C201.7,119.9 201.6,119.7 201.1,119.2C203.9,119.7 205.8,121.1 207.8,122.3C208.7,122.9 209.6,123.7 210.5,124.3C211.3,124.8 212,126.3 213,125.7C214.3,124.9 214.7,123.4 214.1,121.8C214,121.5 214,121.2 213.9,120.7C217,122.5 219.5,124.5 221.7,127C222.1,127.4 222.3,128.4 223.1,128.1C223.9,127.9 224.3,127 224.4,126.2C224.5,125.2 224.4,124.3 224.4,122.9C228.4,125.8 231.1,129.7 234.4,133C235.7,132 235.6,130.4 236.2,129C236.4,129 236.6,129 236.8,129.2C243.6,136.2 248.7,144.1 250.3,154C251.4,161.3 247.9,168 241.3,171.4C240.1,172 239.4,171.6 238.5,170.9C222.8,158.4 205.1,149.5 186.4,142.5C185.3,142.1 184.2,141.6 183,141.9C192,146.9 201.2,151.8 209.8,157.4C218.1,162.8 226.1,168.6 233.2,175.6C234.7,177 234.8,178.3 234.1,180.1C231.6,186.4 226.9,190.5 220.9,193.1C213.1,196.5 204.8,197.3 196.3,197C196.3,196.8 196.2,196.6 196.3,196.5C197.4,195.7 199.3,194.9 198.9,193.7C198.5,192.4 196.5,192.7 195.1,192.6C191.2,192.2 187.3,192.2 183.6,190.4C183.7,190.1 183.8,189.9 183.9,189.9C185.1,189.5 186.7,189.2 186.7,187.8C186.7,187.1 185,187 184,186.7C180.5,185.5 176.6,184.5 172.7,181.7ZM188.8,208.2C197.6,203.9 206.9,203.2 216.6,204.6C218.8,204.9 218.9,205.9 218.2,207.6C217.3,209.7 215.9,211.5 214.4,213.1C203.3,225.3 190.9,236 176.8,244.6C175.4,245.4 174,246.1 172.5,246.7C168.8,248.2 167.7,247.4 167.7,243C168.3,227.8 174.3,215.4 188.8,208.2ZM153.8,316C148.3,310.6 145.5,303.8 144.5,296.3C142.9,285.1 145.5,274.9 153.1,266.2C155.7,263.2 158.8,260.8 162.2,258.7C164.6,257.3 166.9,257.8 168.4,260.2C170,262.6 170.5,265.4 170.9,268.2C171.2,270.6 171.3,273 171.4,274.8C171,286.2 169.5,296.8 165.7,307.1C164.6,310.1 163.3,313.1 161.1,315.6C158.7,318.5 156.4,318.6 153.8,316ZM215.2,370.6C213.9,376.2 210,379 202.9,379.2C193.9,379.4 186.1,375.9 179.2,370.4C168.3,361.7 163.5,350.1 162.9,336.6C162.8,334.4 163.1,332.1 163.6,329.9C165.4,322.1 170.1,318.9 178.6,320.2C185.5,321.2 191.2,324.9 196.5,329.2C206.2,337 212.7,346.7 215.1,359.1C215.5,361.2 215.7,363.4 216,365.5C216,367.1 215.6,368.9 215.2,370.6ZM219.2,308.1C199.1,312.9 182.4,299.6 182.4,278.7C182.4,258.9 198.2,240.7 217.6,238.2C233.9,236 248.2,247.3 250.1,263.9C252.3,283.5 238.3,303.5 219.2,308.1ZM290.6,392.8C288.7,396.1 285.9,398.7 282.9,401.1C265.2,414.8 242.9,413.7 226.6,398.3C225.8,397.5 225.1,396.7 224.3,395.8C220.9,391.7 221.2,388.8 225.6,385.7C230.9,382 237.1,380.5 243.4,379.2C248.5,378.2 253.6,377.6 257.2,377.7C266.9,377.7 274.8,378.7 282.4,381.5C284.8,382.4 287.2,383.4 289.2,385.1C292.1,387.6 292.5,389.6 290.6,392.8ZM278.3,362C272,365.9 265.1,367.9 257.7,367.8C245.7,367.5 235.6,363.2 228.2,353.5C218.5,340.7 220.5,323.1 232.6,312.1C246.5,299.4 269.6,299.5 283.3,312.3C298.9,326.6 296.5,350.6 278.3,362ZM316.4,379.5C313.1,380.1 309.7,380.2 306.3,379.6C299.4,378.3 296.1,374.3 296.1,366.6C296.1,357 299.2,348.2 304.1,340.2C309.7,331 317.5,323.8 326.6,318.1C329.8,316.1 333.2,314.8 337.1,314.8C341.7,314.8 345.1,316.7 347.1,321C349.6,326.4 350.6,332.2 350.6,339C351.6,359.8 331.8,376.9 316.4,379.5ZM358.8,313.6C354.9,318.3 352,318.1 348.7,312.9C345.1,307.2 343.5,300.8 342.1,294.4C340.4,286.4 339.7,278.3 340.1,270.2C340.3,267 340.7,263.8 342.1,260.8C343.9,256.9 346.5,256.1 350,258.4C361.4,265.7 366.9,276.3 367.3,289.5C366.9,298.6 364.6,306.7 358.8,313.6Z" style="fill:white;fill-rule:nonzero;"/>
        </g>
    </g>
    <g transform="matrix(1,0,0,1,0,-10)">
        <g transform="matrix(1,0,0,1,-80,-7.42022)">
            <g transform="matrix(0.0961571,0,0,0.0961571,200,99.4238)">
                <g transform="matrix(1,0,0,1,-256,-256)">
                    <path id="Background_Bottom_1_" d="M492.3,280.5C486,403.3 382.4,505 255.8,505.1C129,505.2 25.1,403.5 18.8,280.5C12.1,148.5 119.9,31.4 255.6,31.4C391.3,31.4 499.1,148.5 492.3,280.5Z" style="fill:rgb(5,76,74);fill-rule:nonzero;"/>
                    <path id="Background_1_" d="M492.3,255.9C486,378.7 382.4,480.3 255.8,480.4C129,480.5 25.1,378.9 18.8,255.9C12.1,123.8 119.9,6.8 255.6,6.8C391.3,6.8 499.1,123.9 492.3,255.9Z" style="fill:rgb(51,204,131);fill-rule:nonzero;"/>
                </g>
            </g>
            <g transform="matrix(1,0,0,1,200,99.1323)">
                <g transform="matrix(1,0,0,1,-16,-16)">
                    <path id="Oval-245" serif:id="Oval 245" d="M16,30C18.209,30 20,28.209 20,26C20,24.519 19.196,23.227 18,22.535L18,4.005C18,2.898 17.112,2 16,2C14.895,2 14,2.897 14,4.005L14,22.535C12.804,23.227 12,24.519 12,26C12,28.209 13.791,30 16,30ZM16,29C14.343,29 13,27.657 13,26C13,24.689 13.841,23.574 15.014,23.166C15.005,23.111 15,23.055 15,22.998L15,13.002C15,12.456 15.448,12 16,12C16.556,12 17,12.449 17,13.002L17,22.998C17,23.055 16.995,23.111 16.986,23.166C18.158,23.573 19,24.688 19,26C19,27.657 17.657,29 16,29ZM16,32C12.686,32 10,29.314 10,26C10,24.223 10.773,22.626 12,21.528L12,4.006C12,1.787 13.791,0 16,0C18.205,0 20,1.793 20,4.006L20,21.528C21.227,22.626 22,24.223 22,26C22,29.314 19.314,32 16,32Z" style="fill:white;"/>
                </g>
            </g>
        </g>
        <g transform="matrix(1,0,0,1,-61.0309,-12.8097)">
            <g transform="matrix(0.0961571,0,0,0.0961571,150.993,163.216)">
                <g transform="matrix(1,0,0,1,-256,-256)">
                    <path id="Background_Bottom_1_1" serif:id="Background_Bottom_1_" d="M492.3,280.5C486,403.3 382.4,505 255.8,505.1C129,505.2 25.1,403.5 18.8,280.5C12.1,148.5 119.9,31.4 255.6,31.4C391.3,31.4 499.1,148.5 492.3,280.5Z" style="fill:rgb(5,76,74);fill-rule:nonzero;"/>
                    <path id="Background_1_1" serif:id="Background_1_" d="M492.3,255.9C486,378.7 382.4,480.3 255.8,480.4C129,480.5 25.1,378.9 18.8,255.9C12.1,123.8 119.9,6.8 255.6,6.8C391.3,6.8 499.1,123.9 492.3,255.9Z" style="fill:rgb(51,204,131);fill-rule:nonzero;"/>
                </g>
            </g>
            <g transform="matrix(1,0,0,1,150.993,162.616)">
                <g>
                    <g transform="matrix(1,0,0,1,-15,-15)">
                        <clipPath id="_clip1">
                            <rect x="0" y="0" width="30" height="30"/>
                        </clipPath>
                        <g clip-path="url(#_clip1)">
                            <path d="M11,27L19,27" style="fill:none;stroke:white;stroke-width:2px;"/>
                            <path d="M15,20C13.343,20 12,18.657 12,17L12,5C12,3.343 13.343,2 15,2C16.657,2 18,3.343 18,5L18,17C18,18.657 16.657,20 15,20Z" style="fill:white;fill-rule:nonzero;stroke:white;stroke-width:1px;stroke-linecap:butt;stroke-linejoin:round;stroke-miterlimit:1.41421;"/>
                            <path d="M15,27L15,23" style="fill:none;stroke:white;stroke-width:2px;"/>
                            <path d="M21,13L21,17C21,20.314 18.314,23 15,23C11.686,23 9,20.314 9,17L9,13" style="fill:none;stroke:white;stroke-width:2px;"/>
                        </g>
                    </g>
                </g>
            </g>
        </g>
        <g transform="matrix(1,0,0,1,-1.81041,-15.8746)">
            <g transform="matrix(0.0961571,0,0,0.0961571,121.81,224.684)">
                <g transform="matrix(1,0,0,1,-256,-256)">
                    <path id="Background_Bottom_1_2" serif:id="Background_Bottom_1_" d="M492.3,280.5C486,403.3 382.4,505 255.8,505.1C129,505.2 25.1,403.5 18.8,280.5C12.1,148.5 119.9,31.4 255.6,31.4C391.3,31.4 499.1,148.5 492.3,280.5Z" style="fill:rgb(5,76,74);fill-rule:nonzero;"/>
                    <path id="Background_1_2" serif:id="Background_1_" d="M492.3,255.9C486,378.7 382.4,480.3 255.8,480.4C129,480.5 25.1,378.9 18.8,255.9C12.1,123.8 119.9,6.8 255.6,6.8C391.3,6.8 499.1,123.9 492.3,255.9Z" style="fill:rgb(51,204,131);fill-rule:nonzero;"/>
                </g>
            </g>
            <g transform="matrix(0.0636574,0,0,0.0636574,121.81,223.926)">
                <g transform="matrix(1,0,0,1,-256,-256)">
                    <path d="M256,144C194.25,144 144,194.25 144,256C144,317.749 194.25,368 256,368C317.75,368 368,317.749 368,256C368,194.25 317.75,144 256,144ZM256,112C264.833,112 272,104.854 272,96L272,64C272,55.167 264.833,48 256,48C247.146,48 240,55.167 240,64L240,96C240,104.854 247.146,112 256,112ZM256,400C247.146,400 240,407.167 240,416L240,448C240,456.854 247.146,464 256,464C264.833,464 272,456.854 272,448L272,416C272,407.167 264.833,400 256,400ZM380.417,154.167L403.042,131.542C409.292,125.292 409.292,115.167 403.042,108.917C396.791,102.667 386.667,102.667 380.417,108.917L357.792,131.542C351.541,137.792 351.541,147.917 357.792,154.167C364.042,160.416 374.166,160.416 380.417,154.167ZM131.541,357.854L108.918,380.479C102.666,386.729 102.666,396.856 108.918,403.104C115.167,409.354 125.291,409.354 131.541,403.104L154.166,380.479C160.417,374.188 160.417,364.104 154.166,357.854C147.917,351.604 137.792,351.562 131.541,357.854ZM112,256C112,247.167 104.833,240 96,240L64,240C55.146,240 48,247.167 48,256C48,264.854 55.146,272 64,272L96,272C104.833,272 112,264.854 112,256ZM448,240L416,240C407.146,240 400,247.167 400,256C400,264.854 407.146,272 416,272L448,272C456.833,272 464,264.854 464,256C464,247.167 456.833,240 448,240ZM131.521,154.167C137.77,160.417 147.896,160.417 154.146,154.167C160.395,147.917 160.395,137.792 154.146,131.542L131.521,108.917C125.271,102.667 115.145,102.667 108.896,108.917C102.646,115.167 102.646,125.292 108.896,131.542L131.521,154.167ZM380.459,357.812C374.166,351.562 364.083,351.562 357.834,357.812C351.584,364.06 351.541,374.187 357.834,380.437L380.459,403.062C386.708,409.31 396.833,409.31 403.084,403.062C409.333,396.812 409.333,386.685 403.084,380.437L380.459,357.812Z" style="fill:white;fill-rule:nonzero;"/>
                </g>
            </g>
        </g>
    </g>
    <g transform="matrix(2.77761,0,0,2.77761,350,38.6508)">
        <g transform="matrix(1,0,0,1,-12,-12)">
            <g transform="matrix(1,0,0,1,0,-1028.4)">
                <path d="M3,1043.4L3,1046.8C2.996,1046.8 3,1046.8 3,1046.9C3,1049.3 7.029,1051.4 12,1051.4C16.971,1051.4 21,1049.3 21,1046.9L21,1046.7L21,1046.4L21,1043.4L3,1043.4Z" style="fill:rgb(149,165,166);fill-rule:nonzero;"/>
                <g transform="matrix(1,0,0,1,0,1038.4)">
                    <path d="M21,5C21,7.194 16.937,9 12,9C7.063,9 3,7.194 3,5C3,2.806 7.063,1 12,1C16.937,1 21,2.806 21,5Z" style="fill:rgb(189,195,199);fill-rule:nonzero;"/>
                </g>
                <path d="M3.063,1046.9C3.017,1047 3,1047.2 3,1047.4C3,1049.6 7.029,1051.4 12,1051.4C16.971,1051.4 21,1049.6 21,1047.4C21,1047.2 20.983,1047 20.938,1046.9C20.384,1048.8 16.589,1050.4 12,1050.4C7.411,1050.4 3.616,1048.8 3.062,1046.9Z" style="fill:rgb(127,140,141);fill-rule:nonzero;"/>
                <path d="M3,1038.4L3,1041.8C2.996,1041.8 3,1041.8 3,1041.9C3,1044.3 7.029,1046.4 12,1046.4C16.971,1046.4 21,1044.3 21,1041.9L21,1041.7L21,1041.4L21,1038.4L3,1038.4Z" style="fill:rgb(149,165,166);fill-rule:nonzero;"/>
                <g transform="matrix(1,0,0,1,0,1033.4)">
                    <path d="M21,5C21,7.194 16.937,9 12,9C7.063,9 3,7.194 3,5C3,2.806 7.063,1 12,1C16.937,1 21,2.806 21,5Z" style="fill:rgb(189,195,199);fill-rule:nonzero;"/>
                </g>
                <path d="M3.063,1041.9C3.017,1042 3,1042.2 3,1042.4C3,1044.6 7.029,1046.4 12,1046.4C16.971,1046.4 21,1044.6 21,1042.4C21,1042.2 20.983,1042 20.938,1041.9C20.384,1043.8 16.589,1045.4 12,1045.4C7.411,1045.4 3.616,1043.8 3.062,1041.9Z" style="fill:rgb(127,140,141);fill-rule:nonzero;"/>
                <path d="M3,1033.4L3,1036.8C2.996,1036.8 3,1036.8 3,1036.9C3,1039.3 7.029,1041.4 12,1041.4C16.971,1041.4 21,1039.3 21,1036.9L21,1036.7L21,1036.4L21,1033.4L3,1033.4Z" style="fill:rgb(149,165,166);fill-rule:nonzero;"/>
                <path d="M3.063,1036.9C3.017,1037 3,1037.2 3,1037.4C3,1039.6 7.029,1041.4 12,1041.4C16.971,1041.4 21,1039.6 21,1037.4C21,1037.2 20.983,1037 20.938,1036.9C20.384,1038.8 16.589,1040.4 12,1040.4C7.411,1040.4 3.616,1038.8 3.062,1036.9Z" style="fill:rgb(127,140,141);fill-rule:nonzero;"/>
                <path d="M12,1043.4L12,1051.4C16.971,1051.4 21,1049.3 21,1046.9L21,1046.7L21,1046.4L21,1043.4L12,1043.4Z" style="fill:rgb(189,195,199);fill-rule:nonzero;"/>
                <g transform="matrix(1,0,0,1,0,5)">
                    <g transform="matrix(1,0,0,1,0,1028.4)">
                        <path d="M12,6L12,14C16.971,14 21,12.209 21,10C21,7.791 16.971,6 12,6Z" style="fill:rgb(236,240,241);fill-rule:nonzero;"/>
                    </g>
                    <g transform="matrix(1,0,0,1,0,1028.4)">
                        <path d="M12,5L12,13C16.971,13 21,10.985 21,8.5L21,8.313L21,8L21,5L12,5Z" style="fill:rgb(189,195,199);fill-rule:nonzero;"/>
                    </g>
                    <g transform="matrix(1,0,0,1,0,1028.4)">
                        <path d="M20.938,8.5C20.384,10.473 16.589,12 12,12L12,13C16.971,13 21,11.209 21,9C21,8.831 20.983,8.664 20.938,8.5Z" style="fill:rgb(149,165,166);fill-rule:nonzero;"/>
                    </g>
                </g>
                <g transform="matrix(1,0,0,1,0,1028.4)">
                    <path d="M12,6L12,14C16.971,14 21,12.209 21,10C21,7.791 16.971,6 12,6Z" style="fill:rgb(236,240,241);fill-rule:nonzero;"/>
                </g>
                <g transform="matrix(1,0,0,1,0,1028.4)">
                    <path d="M12,5L12,13C16.971,13 21,10.985 21,8.5L21,8.313L21,8L21,5L12,5Z" style="fill:rgb(189,195,199);fill-rule:nonzero;"/>
                </g>
                <g transform="matrix(1,0,0,1,0,1028.4)">
                    <path d="M20.938,8.5C20.384,10.473 16.589,12 12,12L12,13C16.971,13 21,11.209 21,9C21,8.831 20.983,8.664 20.938,8.5Z" style="fill:rgb(149,165,166);fill-rule:nonzero;"/>
                </g>
                <path d="M20.938,1046.9C20.384,1048.8 16.589,1050.4 12,1050.4L12,1051.4C16.971,1051.4 21,1049.6 21,1047.4C21,1047.2 20.983,1047 20.938,1046.9Z" style="fill:rgb(149,165,166);fill-rule:nonzero;"/>
                <g transform="matrix(1,0,0,1,0,1028.4)">
                    <path d="M21,5C21,7.194 16.937,9 12,9C7.063,9 3,7.194 3,5C3,2.806 7.063,1 12,1C16.937,1 21,2.806 21,5Z" style="fill:rgb(189,195,199);fill-rule:nonzero;"/>
                </g>
            </g>
        </g>
    </g>
    <g transform="matrix(1,0,0,1,-6.90029,-73.9474)">
        <text x="387.476px" y="118.587px" style="font-family:'ArialMT', 'Arial', sans-serif;font-size:12px;">InﬂuxDB</text>
    </g>
    <g transform="matrix(1,0,0,1,-374.826,20.8905)">
        <text x="390.142px" y="118.587px" style="font-family:'ArialMT', 'Arial', sans-serif;font-size:12px;">Sensors</text>
        <text x="387.476px" y="130.979px" style="font-family:'ArialMT', 'Arial', sans-serif;font-size:12px;">(Arduino)</text>
    </g>
    <g transform="matrix(1,0,0,1,155.174,25.8905)">
        <text x="387.476px" y="118.587px" style="font-family:'ArialMT', 'Arial', sans-serif;font-size:12px;">Users</text>
    </g>
    <g transform="matrix(0.967117,0.25433,-0.25433,0.967117,-194.454,-123.026)">
        <text x="387.476px" y="118.587px" style="font-family:'ArialMT', 'Arial', sans-serif;font-size:9px;">ﬂoat_temp_c=27</text>
    </g>
    <g transform="matrix(1,0,0,1,-265.096,31.0928)">
        <text x="387.476px" y="118.587px" style="font-family:'ArialMT', 'Arial', sans-serif;font-size:9px;">int_volume_dB=82</text>
    </g>
    <g transform="matrix(0.964688,-0.263394,0.263394,0.964688,-251.8,196.419)">
        <text x="387.476px" y="118.587px" style="font-family:'ArialMT', 'Arial', sans-serif;font-size:9px;">bool_light_on_state=true</text>
    </g>
    <g transform="matrix(1,0,0,1,-117.553,81.4017)">
        <text x="432.385px" y="118.587px" style="font-family:'ArialMT', 'Arial', sans-serif;font-size:12px;">Raspberry PI</text>
        <text x="387.476px" y="130.979px" style="font-family:'ArialMT', 'Arial', sans-serif;font-size:12px;">W<tspan x="398.585px 405.259px " y="130.979px 130.979px ">eb</tspan> Server &amp; Radio Receiver</text>
    </g>
    <g transform="matrix(1.07857,0,0,1,-23.5714,0)">
        <path d="M160,80L300,120" style="fill:none;stroke:rgb(0,107,210);stroke-width:2.4px;stroke-linejoin:round;stroke-miterlimit:1.5;stroke-dasharray:4.81,7.21,0,0;"/>
    </g>
    <g transform="matrix(1,0,0,1,-9,1)">
        <path d="M359,94L359,74" style="fill:none;stroke:rgb(137,137,137);stroke-width:2.5px;stroke-linejoin:round;stroke-miterlimit:1.5;"/>
    </g>
    <path d="M300,140L120,140" style="fill:none;stroke:rgb(0,107,210);stroke-width:2.5px;stroke-linejoin:round;stroke-miterlimit:1.5;stroke-dasharray:5,7.5,0,0;"/>
    <g transform="matrix(-2.41709e-05,-0.0443513,0.0443513,-2.41709e-05,443.911,124.018)">
        <g transform="matrix(1,0,0,1,-256,-256)">
            <g>
                <rect id="XMLID_5_" x="15.1" y="6" width="344.2" height="82.6" style="fill:rgb(91,91,91);"/>
                <rect id="XMLID_4_" x="15.1" y="110.3" width="481.8" height="82.6" style="fill:rgb(91,91,91);"/>
                <rect id="XMLID_3_" x="15.1" y="214.7" width="139.8" height="82.6" style="fill:rgb(91,91,91);"/>
                <rect id="XMLID_2_" x="15.1" y="319" width="269.2" height="82.6" style="fill:rgb(91,91,91);"/>
                <rect id="XMLID_1_" x="15.1" y="423.4" width="448.7" height="82.6" style="fill:rgb(91,91,91);"/>
            </g>
        </g>
    </g>
    <g transform="matrix(1.07857,0,0,1,-23.5714,0)">
        <path d="M300,160L160,200" style="fill:none;stroke:rgb(0,107,210);stroke-width:2.4px;stroke-linejoin:round;stroke-miterlimit:1.5;stroke-dasharray:4.81,7.21,0,0;"/>
    </g>
    <path d="M400,140" style="fill:none;stroke:rgb(137,137,137);stroke-width:2.5px;stroke-linejoin:round;stroke-miterlimit:1.5;stroke-dasharray:5,7.5,0,0;"/>
    <g transform="matrix(1,0,0,1,360.149,-23.2697)">
        <g transform="matrix(0.0961571,0,0,0.0961571,150.993,163.216)">
            <g>
                <g transform="matrix(1,0,0,1,-256,-256)">
                    <path id="Background_Bottom_1_3" serif:id="Background_Bottom_1_" d="M492.3,280.5C486,403.3 382.4,505 255.8,505.1C129,505.2 25.1,403.5 18.8,280.5C12.1,148.5 119.9,31.4 255.6,31.4C391.3,31.4 499.1,148.5 492.3,280.5Z" style="fill:rgb(5,76,74);fill-rule:nonzero;"/>
                    <path id="Background_1_3" serif:id="Background_1_" d="M492.3,255.9C486,378.7 382.4,480.3 255.8,480.4C129,480.5 25.1,378.9 18.8,255.9C12.1,123.8 119.9,6.8 255.6,6.8C391.3,6.8 499.1,123.9 492.3,255.9Z" style="fill:rgb(51,204,131);fill-rule:nonzero;"/>
                </g>
            </g>
        </g>
    </g>
    <g transform="matrix(1.81423,0,0,1.81423,511.142,138.078)">
        <g transform="matrix(1,0,0,1,-12,-12)">
            <path d="M17,9C17,7.619 16.44,6.369 15.536,5.465C14.631,4.56 13.381,4 12,4C10.619,4 9.369,4.56 8.464,5.465C7.56,6.369 7,7.619 7,9C7,10.381 7.56,11.631 8.464,12.535C9.369,13.44 10.619,14 12,14C13.381,14 14.631,13.44 15.536,12.535C16.44,11.631 17,10.381 17,9Z" style="fill:white;fill-rule:nonzero;"/>
            <path d="M6,19C6,20 8.25,21 12,21C15.518,21 18,20 18,19C18,17 15.646,15 12,15C8.25,15 6,17 6,19Z" style="fill:white;fill-rule:nonzero;"/>
        </g>
    </g>
    <path d="M399,140L480,140" style="fill:none;stroke:rgb(137,137,137);stroke-width:2.5px;stroke-linejoin:round;stroke-miterlimit:1.5;stroke-dasharray:5,7.5,0,0;"/>
    <g transform="matrix(0.258328,0,0,1,358.721,-103.404)">
        <path d="M399,140L480,140" style="fill:none;stroke:rgb(0,107,210);stroke-width:3.42px;stroke-linejoin:round;stroke-miterlimit:1.5;stroke-dasharray:6.85,10.27,0,0;"/>
    </g>
    <g transform="matrix(0.258328,0,0,1,358.721,-117.877)">
        <path d="M399,140L480,140" style="fill:none;stroke:rgb(137,137,137);stroke-width:3.42px;stroke-linejoin:round;stroke-miterlimit:1.5;stroke-dasharray:6.85,10.27,0,0;"/>
    </g>
    <g transform="matrix(1,0,0,1,350.877,13.1224)">
        <text x="135.636px" y="26.544px" style="font-family:'Arial-BoldItalicMT', 'Arial', sans-serif;font-weight:700;font-style:italic;font-size:9px;">Radio Channels / WiFi</text>
    </g>
    <g transform="matrix(0.215319,0,0,1,375.882,-88.9299)">
        <path d="M399,140L480,140" style="fill:none;stroke:rgb(137,137,137);stroke-width:3.46px;stroke-linejoin:round;stroke-miterlimit:1.5;"/>
    </g>
    <g transform="matrix(1,0,0,1,350.877,27.352)">
        <text x="135.636px" y="26.544px" style="font-family:'Arial-BoldItalicMT', 'Arial', sans-serif;font-weight:700;font-style:italic;font-size:9px;">Internal connection</text>
    </g>
    <g transform="matrix(1,0,0,1,307.174,-26.8254)">
        <text x="178.68px" y="52.266px" style="font-family:'Arial-BoldItalicMT', 'Arial', sans-serif;font-weight:700;font-style:italic;font-size:9px;">WiFi / Local Network</text>
    </g>
</svg>
